<svg width="20" height="16" viewBox="0 0 20 16" fill="none" xmlns="http://www.w3.org/2000/svg">
<path d="M1.66675 9.66665C1.66675 8.74617 2.41294 7.99998 3.33341 7.99998C4.25389 7.99998 5.00008 8.74617 5.00008 9.66665V13C5.00008 13.9205 4.25389 14.6666 3.33341 14.6666C2.41294 14.6666 1.66675 13.9205 1.66675 13V9.66665Z" stroke="#181818" stroke-width="1.67"/>
<path d="M8.33342 2.99998C8.33342 2.07951 9.07961 1.33331 10.0001 1.33331C10.9206 1.33331 11.6667 2.07951 11.6667 2.99998V13C11.6667 13.9205 10.9206 14.6666 10.0001 14.6666C9.07961 14.6666 8.33342 13.9205 8.33342 13V2.99998Z" stroke="#181818" stroke-width="1.67"/>
<path d="M15.0001 6.33331C15.0001 5.41284 15.7463 4.66665 16.6667 4.66665C17.5872 4.66665 18.3334 5.41284 18.3334 6.33331V13C18.3334 13.9205 17.5872 14.6666 16.6667 14.6666C15.7463 14.6666 15.0001 13.9205 15.0001 13V6.33331Z" stroke="#181818" stroke-width="1.67"/>
</svg>
