<svg width="20" height="20" viewBox="0 0 20 20" fill="none" xmlns="http://www.w3.org/2000/svg">
<path d="M7.48487 14.5455C7.48487 15.0978 7.93259 15.5455 8.48487 15.5455C9.03715 15.5455 9.48487 15.0978 9.48487 14.5455H7.48487ZM9.48487 5.45457C9.48487 4.90228 9.03715 4.45457 8.48487 4.45457C7.93258 4.45457 7.48487 4.90228 7.48487 5.45457L9.48487 5.45457ZM4.45457 14.5455C4.45457 15.0978 4.90228 15.5455 5.45457 15.5455C6.00685 15.5455 6.45457 15.0978 6.45457 14.5455H4.45457ZM6.45457 12.2727C6.45457 11.7205 6.00685 11.2727 5.45457 11.2727C4.90228 11.2727 4.45457 11.7205 4.45457 12.2727H6.45457ZM10.5152 14.5455C10.5152 15.0978 10.9629 15.5455 11.5152 15.5455C12.0675 15.5455 12.5152 15.0978 12.5152 14.5455H10.5152ZM12.5152 7.72729C12.5152 7.17501 12.0675 6.72729 11.5152 6.72729C10.9629 6.72729 10.5152 7.17501 10.5152 7.72729H12.5152ZM13.5455 14.5455C13.5455 15.0978 13.9932 15.5455 14.5455 15.5455C15.0978 15.5455 15.5455 15.0978 15.5455 14.5455H13.5455ZM15.5455 10C15.5455 9.44774 15.0978 9.00002 14.5455 9.00002C13.9932 9.00002 13.5455 9.44774 13.5455 10H15.5455ZM3.73491 17.9205L4.1889 17.0295L4.18889 17.0295L3.73491 17.9205ZM2.07954 16.2651L2.97055 15.8111H2.97055L2.07954 16.2651ZM17.9205 16.2651L17.0295 15.8111L17.0295 15.8111L17.9205 16.2651ZM16.2651 17.9205L15.8111 17.0295L15.8111 17.0295L16.2651 17.9205ZM16.2651 2.07954L15.8111 2.97055V2.97055L16.2651 2.07954ZM17.9205 3.73491L17.0295 4.18889L17.0295 4.1889L17.9205 3.73491ZM3.73491 2.07954L4.1889 2.97055L3.73491 2.07954ZM2.07954 3.73491L2.97055 4.1889L2.07954 3.73491ZM9.48487 14.5455L9.48487 5.45457L7.48487 5.45457L7.48487 14.5455H9.48487ZM6.45457 14.5455V12.2727H4.45457V14.5455H6.45457ZM12.5152 14.5455V7.72729H10.5152V14.5455H12.5152ZM15.5455 14.5455V10H13.5455V14.5455H15.5455ZM7.72729 2.66669H12.2727V0.666687H7.72729V2.66669ZM17.3334 7.72729V12.2727H19.3334V7.72729H17.3334ZM12.2727 17.3334H7.72729V19.3334H12.2727V17.3334ZM2.66669 12.2727V7.72729H0.666687V12.2727H2.66669ZM7.72729 17.3334C6.65009 17.3334 5.90232 17.3326 5.32085 17.2851C4.75106 17.2385 4.42956 17.1521 4.1889 17.0295L3.28091 18.8115C3.85052 19.1017 4.46451 19.2218 5.15799 19.2784C5.83979 19.3341 6.68309 19.3334 7.72729 19.3334V17.3334ZM0.666687 12.2727C0.666687 13.317 0.665909 14.1602 0.721615 14.8421C0.778274 15.5355 0.898307 16.1495 1.18853 16.7191L2.97055 15.8111C2.84792 15.5705 2.76153 15.249 2.71497 14.6792C2.66746 14.0977 2.66669 13.35 2.66669 12.2727H0.666687ZM4.18889 17.0295C3.66432 16.7622 3.23783 16.3357 2.97055 15.8111L1.18853 16.7191C1.64756 17.62 2.38002 18.3525 3.28091 18.8115L4.18889 17.0295ZM17.3334 12.2727C17.3334 13.35 17.3326 14.0977 17.2851 14.6792C17.2385 15.249 17.1521 15.5705 17.0295 15.8111L18.8115 16.7191C19.1017 16.1495 19.2218 15.5355 19.2784 14.8421C19.3341 14.1602 19.3334 13.317 19.3334 12.2727H17.3334ZM12.2727 19.3334C13.317 19.3334 14.1602 19.3341 14.8421 19.2784C15.5355 19.2218 16.1495 19.1017 16.7191 18.8115L15.8111 17.0295C15.5705 17.1521 15.249 17.2385 14.6792 17.2851C14.0977 17.3326 13.35 17.3334 12.2727 17.3334V19.3334ZM17.0295 15.8111C16.7622 16.3357 16.3357 16.7622 15.8111 17.0295L16.7191 18.8115C17.62 18.3525 18.3525 17.62 18.8115 16.7191L17.0295 15.8111ZM12.2727 2.66669C13.35 2.66669 14.0977 2.66746 14.6792 2.71497C15.249 2.76153 15.5705 2.84792 15.8111 2.97055L16.7191 1.18853C16.1495 0.898307 15.5355 0.778274 14.8421 0.721615C14.1602 0.665909 13.317 0.666687 12.2727 0.666687V2.66669ZM19.3334 7.72729C19.3334 6.68309 19.3341 5.83979 19.2784 5.15799C19.2218 4.46451 19.1017 3.85052 18.8115 3.28091L17.0295 4.1889C17.1521 4.42956 17.2385 4.75106 17.2851 5.32085C17.3326 5.90232 17.3334 6.65009 17.3334 7.72729H19.3334ZM15.8111 2.97055C16.3357 3.23783 16.7622 3.66432 17.0295 4.18889L18.8115 3.28091C18.3525 2.38002 17.62 1.64756 16.7191 1.18853L15.8111 2.97055ZM7.72729 0.666687C6.68309 0.666687 5.83979 0.665909 5.15799 0.721615C4.46451 0.778274 3.85052 0.898307 3.28091 1.18853L4.1889 2.97055C4.42956 2.84792 4.75106 2.76153 5.32085 2.71497C5.90232 2.66746 6.65009 2.66669 7.72729 2.66669V0.666687ZM2.66669 7.72729C2.66669 6.65009 2.66746 5.90232 2.71497 5.32085C2.76153 4.75106 2.84792 4.42956 2.97055 4.1889L1.18853 3.28091C0.898307 3.85052 0.778274 4.46451 0.721615 5.15799C0.665909 5.83979 0.666687 6.68309 0.666687 7.72729H2.66669ZM3.28091 1.18853C2.38002 1.64756 1.64756 2.38002 1.18853 3.28091L2.97055 4.1889C3.23783 3.66432 3.66432 3.23783 4.1889 2.97055L3.28091 1.18853Z" fill="#181818"/>
</svg>
