<svg width="20" height="20" viewBox="0 0 20 20" fill="none" xmlns="http://www.w3.org/2000/svg">
<path d="M1.66669 11.6666C1.66669 10.7462 2.41288 9.99998 3.33335 9.99998C4.25383 9.99998 5.00002 10.7462 5.00002 11.6666V15C5.00002 15.9205 4.25383 16.6666 3.33335 16.6666C2.41288 16.6666 1.66669 15.9205 1.66669 15V11.6666Z" stroke="white" stroke-width="1.67"/>
<path d="M8.33335 4.99998C8.33335 4.07951 9.07955 3.33331 10 3.33331C10.9205 3.33331 11.6667 4.07951 11.6667 4.99998V15C11.6667 15.9205 10.9205 16.6666 10 16.6666C9.07955 16.6666 8.33335 15.9205 8.33335 15V4.99998Z" stroke="white" stroke-width="1.67"/>
<path d="M15 8.33331C15 7.41284 15.7462 6.66665 16.6667 6.66665C17.5872 6.66665 18.3334 7.41284 18.3334 8.33331V15C18.3334 15.9205 17.5872 16.6666 16.6667 16.6666C15.7462 16.6666 15 15.9205 15 15V8.33331Z" stroke="white" stroke-width="1.67"/>
</svg>
