<svg width="20" height="20" viewBox="0 0 20 20" fill="none" xmlns="http://www.w3.org/2000/svg">
<path d="M7.48493 14.5455C7.48493 15.0978 7.93265 15.5455 8.48493 15.5455C9.03722 15.5455 9.48493 15.0978 9.48493 14.5455L7.48493 14.5455ZM9.48493 5.45457C9.48493 4.90228 9.03722 4.45457 8.48493 4.45457C7.93265 4.45457 7.48493 4.90228 7.48493 5.45457L9.48493 5.45457ZM4.45463 14.5455C4.45463 15.0978 4.90234 15.5455 5.45463 15.5455C6.00691 15.5455 6.45463 15.0978 6.45463 14.5455H4.45463ZM6.45463 12.2727C6.45463 11.7205 6.00691 11.2727 5.45463 11.2727C4.90234 11.2727 4.45463 11.7205 4.45463 12.2727H6.45463ZM10.5152 14.5455C10.5152 15.0978 10.9629 15.5455 11.5152 15.5455C12.0675 15.5455 12.5152 15.0978 12.5152 14.5455H10.5152ZM12.5152 7.72729C12.5152 7.17501 12.0675 6.72729 11.5152 6.72729C10.9629 6.72729 10.5152 7.17501 10.5152 7.72729H12.5152ZM13.5455 14.5455C13.5455 15.0978 13.9933 15.5455 14.5455 15.5455C15.0978 15.5455 15.5455 15.0978 15.5455 14.5455H13.5455ZM15.5455 10C15.5455 9.44774 15.0978 9.00002 14.5455 9.00002C13.9933 9.00002 13.5455 9.44774 13.5455 10H15.5455ZM3.73497 17.9205L4.18896 17.0295L4.18896 17.0295L3.73497 17.9205ZM2.0796 16.2651L2.97061 15.8111L2.97061 15.8111L2.0796 16.2651ZM17.9206 16.2651L17.0296 15.8111L17.0296 15.8111L17.9206 16.2651ZM16.2652 17.9205L15.8112 17.0295L15.8112 17.0295L16.2652 17.9205ZM16.2652 2.07954L15.8112 2.97055L15.8112 2.97055L16.2652 2.07954ZM17.9206 3.7349L17.0296 4.1889L17.0296 4.1889L17.9206 3.7349ZM3.73497 2.07954L4.18896 2.97055L4.18896 2.97055L3.73497 2.07954ZM2.0796 3.7349L2.97061 4.1889L2.97061 4.1889L2.0796 3.7349ZM9.48493 14.5455L9.48493 5.45457L7.48493 5.45457L7.48493 14.5455L9.48493 14.5455ZM6.45463 14.5455V12.2727H4.45463V14.5455H6.45463ZM12.5152 14.5455V7.72729H10.5152V14.5455H12.5152ZM15.5455 14.5455V10H13.5455V14.5455H15.5455ZM7.72735 2.66669H12.2728V0.666687H7.72735V2.66669ZM17.3334 7.72729V12.2727H19.3334V7.72729H17.3334ZM12.2728 17.3334H7.72735V19.3334H12.2728V17.3334ZM2.66675 12.2727V7.72729H0.666748V12.2727H2.66675ZM7.72735 17.3334C6.65015 17.3334 5.90238 17.3326 5.32091 17.2851C4.75112 17.2385 4.42962 17.1521 4.18896 17.0295L3.28098 18.8115C3.85058 19.1017 4.46457 19.2218 5.15805 19.2784C5.83985 19.3341 6.68315 19.3334 7.72735 19.3334V17.3334ZM0.666748 12.2727C0.666748 13.317 0.66597 14.1602 0.721676 14.8421C0.778335 15.5355 0.898368 16.1495 1.1886 16.7191L2.97061 15.8111C2.84798 15.5705 2.76159 15.249 2.71503 14.6792C2.66753 14.0977 2.66675 13.35 2.66675 12.2727H0.666748ZM4.18896 17.0295C3.66438 16.7622 3.23789 16.3357 2.97061 15.8111L1.1886 16.7191C1.64763 17.62 2.38008 18.3525 3.28098 18.8115L4.18896 17.0295ZM17.3334 12.2727C17.3334 13.35 17.3326 14.0977 17.2851 14.6792C17.2386 15.249 17.1522 15.5705 17.0296 15.8111L18.8116 16.7191C19.1018 16.1495 19.2218 15.5355 19.2785 14.8421C19.3342 14.1602 19.3334 13.317 19.3334 12.2727H17.3334ZM12.2728 19.3334C13.317 19.3334 14.1603 19.3341 14.8421 19.2784C15.5356 19.2218 16.1496 19.1017 16.7192 18.8115L15.8112 17.0295C15.5705 17.1521 15.249 17.2385 14.6792 17.2851C14.0978 17.3326 13.35 17.3334 12.2728 17.3334V19.3334ZM17.0296 15.8111C16.7623 16.3357 16.3358 16.7622 15.8112 17.0295L16.7192 18.8115C17.6201 18.3525 18.3525 17.62 18.8116 16.7191L17.0296 15.8111ZM12.2728 2.66669C13.35 2.66669 14.0978 2.66746 14.6792 2.71497C15.249 2.76153 15.5705 2.84792 15.8112 2.97055L16.7192 1.18853C16.1496 0.898307 15.5356 0.778274 14.8421 0.721615C14.1603 0.665909 13.317 0.666687 12.2728 0.666687V2.66669ZM19.3334 7.72729C19.3334 6.68309 19.3342 5.83979 19.2785 5.15799C19.2218 4.46451 19.1018 3.85052 18.8116 3.28091L17.0296 4.1889C17.1522 4.42956 17.2386 4.75106 17.2851 5.32085C17.3326 5.90232 17.3334 6.65009 17.3334 7.72729H19.3334ZM15.8112 2.97055C16.3358 3.23783 16.7623 3.66432 17.0296 4.1889L18.8116 3.28091C18.3525 2.38002 17.6201 1.64756 16.7192 1.18853L15.8112 2.97055ZM7.72735 0.666687C6.68315 0.666687 5.83985 0.665909 5.15805 0.721615C4.46457 0.778274 3.85058 0.898307 3.28098 1.18853L4.18896 2.97055C4.42962 2.84792 4.75112 2.76153 5.32091 2.71497C5.90238 2.66746 6.65015 2.66669 7.72735 2.66669V0.666687ZM2.66675 7.72729C2.66675 6.65009 2.66753 5.90232 2.71503 5.32085C2.76159 4.75106 2.84798 4.42956 2.97061 4.1889L1.1886 3.28091C0.898368 3.85052 0.778335 4.46451 0.721676 5.15799C0.66597 5.83979 0.666748 6.68309 0.666748 7.72729H2.66675ZM3.28098 1.18853C2.38008 1.64756 1.64763 2.38002 1.1886 3.28091L2.97061 4.1889C3.23789 3.66432 3.66438 3.23783 4.18896 2.97055L3.28098 1.18853Z" fill="#181818"/>
</svg>
